<svg xmlns="http://www.w3.org/2000/svg" xmlns:xlink="http://www.w3.org/1999/xlink" width="256" height="144" viewBox="0 0 67.733 38.1"><defs><linearGradient y2="259.976" x2="422.587" y1="260.657" x1="271.184" gradientTransform="translate(-123.717 -123.724) scale(.54789)" gradientUnits="userSpaceOnUse" id="c" xlink:href="#a"/><linearGradient id="a"><stop offset="0" stop-color="#3a2c8e"/><stop offset=".422" stop-color="#9c16ad"/><stop offset="1" stop-color="#f0c"/></linearGradient><linearGradient xlink:href="#b" id="d" x1="98.558" y1="161.533" x2="172.375" y2="161.533" gradientUnits="userSpaceOnUse" gradientTransform="translate(-11.973 -12.306) scale(.1941)"/><linearGradient id="b"><stop offset="0" stop-color="#3a2c8e"/><stop offset=".548" stop-color="#9c16ad"/><stop offset="1" stop-color="#f0c"/></linearGradient></defs><path d="M27.805 22.874c1.727 0 2.853-.794 2.853-2.213 0-1.49-1.28-1.99-2.338-2.338-.738-.181-1.39-.46-1.39-.78 0-.306.333-.46.834-.46.46 0 .835.113 1.364.6l1.308-1.07c-.557-.628-1.42-1.184-2.672-1.184-1.434 0-2.645.723-2.645 2.018 0 1.293.89 1.836 2.52 2.38.848.32 1.21.486 1.21.834 0 .404-.403.557-.988.557-.71 0-1.392-.5-1.684-.793l-1.294 1.1c.585.82 1.753 1.35 2.922 1.35zm7.494 0c1.67 0 2.963-1.378 2.963-3.716 0-2.45-1.21-3.73-2.936-3.73-.654 0-1.14.25-1.433.655v-.488h-2.018v9.882l2.018-.905v-2.323c.306.39.765.627 1.406.627zm-.32-1.948c-.599 0-.989-.237-1.086-.46v-2.657c.236-.25.53-.432 1.086-.432.862 0 1.265.682 1.265 1.78 0 1.115-.458 1.769-1.265 1.769zm4.488 1.78h2.018v-3.854c0-1.14.584-1.476 1.224-1.476.585 0 .947.224 1.266.488l.265-1.836a1.86 1.86 0 00-1.406-.6c-.737 0-1.21.53-1.35.808v-.64h-2.017zm6.42-7.792c.654 0 1.155-.53 1.155-1.156 0-.641-.5-1.141-1.155-1.141-.64 0-1.169.5-1.169 1.14 0 .628.53 1.157 1.17 1.157zm-1.015 7.793h2.017v-7.112h-2.017zm7.98 0h2.017v-4.62c0-2.074-1.377-2.658-2.463-2.658-.863 0-1.503.306-1.934.82v-.653h-2.018v7.112h2.018v-3.73c0-1.072.361-1.602 1.252-1.602.836 0 1.127.503 1.127 1.63zm5.636.167c.626 0 1.155-.098 1.614-.32l.223-1.698a2.936 2.936 0 01-1.225.278c-.195 0-.403-.125-.403-.404v-3.367h1.544v-1.768h-1.544v-2.936l-2.004.96v1.978h-.975v1.766h.975v3.563c0 1.252.53 1.948 1.795 1.948z" fill="url(#c)"/><path d="M15.665 10.08L7.46 20.295a.231.231 0 00.18.376h5.94a.406.406 0 01.4.475l-1.176 6.77a.123.123 0 00.22.098l8.16-10.21a.232.232 0 00-.18-.376h-5.896a.406.406 0 01-.4-.475l1.177-6.773a.125.125 0 00-.219-.1z" fill="url(#d)"/></svg>